<mxfile host="app.diagrams.net" modified="2023-08-06T12:38:51.421Z" agent="Mozilla/5.0 (Macintosh; Intel Mac OS X 10_15_7) AppleWebKit/605.1.15 (KHTML, like Gecko) Version/16.2 Safari/605.1.15" etag="Yz5YsdcpNzafz2wOasEl" version="21.6.6" type="github">
  <diagram id="C5RBs43oDa-KdzZeNtuy" name="Page-1">
    <mxGraphModel dx="1122" dy="761" grid="1" gridSize="10" guides="1" tooltips="1" connect="1" arrows="1" fold="1" page="1" pageScale="1" pageWidth="827" pageHeight="1169" math="0" shadow="0">
      <root>
        <mxCell id="WIyWlLk6GJQsqaUBKTNV-0" />
        <mxCell id="WIyWlLk6GJQsqaUBKTNV-1" parent="WIyWlLk6GJQsqaUBKTNV-0" />
        <mxCell id="fwAcgCH4Cena5gtede_H-2" value="" style="edgeStyle=orthogonalEdgeStyle;rounded=0;hachureGap=4;orthogonalLoop=1;jettySize=auto;html=1;fontFamily=Architects Daughter;fontSource=https%3A%2F%2Ffonts.googleapis.com%2Fcss%3Ffamily%3DArchitects%2BDaughter;fontSize=16;labelBackgroundColor=none;strokeColor=#0B4D6A;fontColor=default;" edge="1" parent="WIyWlLk6GJQsqaUBKTNV-1" source="fwAcgCH4Cena5gtede_H-0" target="fwAcgCH4Cena5gtede_H-1">
          <mxGeometry relative="1" as="geometry" />
        </mxCell>
        <mxCell id="fwAcgCH4Cena5gtede_H-0" value="&lt;h4&gt;&lt;font style=&quot;font-size: 20px;&quot; face=&quot;Times New Roman&quot;&gt;Process Input&amp;nbsp;&lt;/font&gt;&lt;/h4&gt;" style="strokeWidth=2;html=1;shape=mxgraph.flowchart.terminator;whiteSpace=wrap;rounded=0;hachureGap=4;fontFamily=Architects Daughter;fontSource=https%3A%2F%2Ffonts.googleapis.com%2Fcss%3Ffamily%3DArchitects%2BDaughter;fontSize=20;labelBackgroundColor=none;fillColor=#3333FF;strokeColor=#BAC8D3;fontColor=#EEEEEE;gradientColor=#CC0000;gradientDirection=north;" vertex="1" parent="WIyWlLk6GJQsqaUBKTNV-1">
          <mxGeometry x="277.5" y="230" width="145" height="50" as="geometry" />
        </mxCell>
        <mxCell id="fwAcgCH4Cena5gtede_H-16" value="" style="edgeStyle=orthogonalEdgeStyle;rounded=0;hachureGap=4;orthogonalLoop=1;jettySize=auto;html=1;fontFamily=Architects Daughter;fontSource=https%3A%2F%2Ffonts.googleapis.com%2Fcss%3Ffamily%3DArchitects%2BDaughter;fontSize=16;labelBackgroundColor=none;strokeColor=#0B4D6A;fontColor=default;" edge="1" parent="WIyWlLk6GJQsqaUBKTNV-1" source="fwAcgCH4Cena5gtede_H-1" target="fwAcgCH4Cena5gtede_H-13">
          <mxGeometry relative="1" as="geometry">
            <Array as="points">
              <mxPoint x="513" y="380" />
            </Array>
          </mxGeometry>
        </mxCell>
        <mxCell id="fwAcgCH4Cena5gtede_H-19" value="POSITIVE" style="edgeLabel;html=1;align=center;verticalAlign=middle;resizable=0;points=[];labelBackgroundColor=default;fontColor=#050505;rounded=0;labelBorderColor=none;" vertex="1" connectable="0" parent="fwAcgCH4Cena5gtede_H-16">
          <mxGeometry x="-0.3649" y="-1" relative="1" as="geometry">
            <mxPoint as="offset" />
          </mxGeometry>
        </mxCell>
        <mxCell id="fwAcgCH4Cena5gtede_H-18" style="edgeStyle=orthogonalEdgeStyle;rounded=0;hachureGap=4;orthogonalLoop=1;jettySize=auto;html=1;fontFamily=Architects Daughter;fontSource=https%3A%2F%2Ffonts.googleapis.com%2Fcss%3Ffamily%3DArchitects%2BDaughter;fontSize=16;labelBackgroundColor=none;strokeColor=#0B4D6A;fontColor=default;" edge="1" parent="WIyWlLk6GJQsqaUBKTNV-1" target="fwAcgCH4Cena5gtede_H-17">
          <mxGeometry relative="1" as="geometry">
            <mxPoint x="277.5" y="380" as="sourcePoint" />
            <mxPoint x="114.5" y="380" as="targetPoint" />
          </mxGeometry>
        </mxCell>
        <mxCell id="fwAcgCH4Cena5gtede_H-20" value="NEGATIVE" style="edgeLabel;html=1;align=center;verticalAlign=middle;resizable=0;points=[];labelBackgroundColor=default;fontColor=#000033;rounded=0;" vertex="1" connectable="0" parent="fwAcgCH4Cena5gtede_H-18">
          <mxGeometry x="-0.2313" y="-1" relative="1" as="geometry">
            <mxPoint as="offset" />
          </mxGeometry>
        </mxCell>
        <mxCell id="fwAcgCH4Cena5gtede_H-1" value="&lt;pre&gt;&lt;font size=&quot;1&quot; face=&quot;Times New Roman&quot;&gt;&lt;b style=&quot;font-size: 22px;&quot;&gt;ModelS &lt;/b&gt;&lt;/font&gt;&lt;/pre&gt;" style="rhombus;whiteSpace=wrap;html=1;fontSize=20;fontFamily=Architects Daughter;strokeWidth=2;rounded=0;hachureGap=4;fontSource=https%3A%2F%2Ffonts.googleapis.com%2Fcss%3Ffamily%3DArchitects%2BDaughter;labelBackgroundColor=none;fillColor=#3333FF;strokeColor=#BAC8D3;fontColor=#EEEEEE;gradientColor=#CC0000;gradientDirection=north;" vertex="1" parent="WIyWlLk6GJQsqaUBKTNV-1">
          <mxGeometry x="265" y="310" width="170" height="140" as="geometry" />
        </mxCell>
        <mxCell id="fwAcgCH4Cena5gtede_H-47" style="edgeStyle=orthogonalEdgeStyle;rounded=0;orthogonalLoop=1;jettySize=auto;html=1;exitX=0.5;exitY=1;exitDx=0;exitDy=0;entryX=0.162;entryY=-0.1;entryDx=0;entryDy=0;entryPerimeter=0;labelBackgroundColor=none;strokeColor=#0B4D6A;fontColor=default;" edge="1" parent="WIyWlLk6GJQsqaUBKTNV-1" source="fwAcgCH4Cena5gtede_H-13" target="fwAcgCH4Cena5gtede_H-41">
          <mxGeometry relative="1" as="geometry" />
        </mxCell>
        <mxCell id="fwAcgCH4Cena5gtede_H-13" value="&lt;pre&gt;&lt;font size=&quot;1&quot; face=&quot;Times New Roman&quot;&gt;&lt;b style=&quot;font-size: 20px;&quot;&gt;ModelUP&lt;/b&gt;&lt;/font&gt;&lt;/pre&gt;" style="rhombus;whiteSpace=wrap;html=1;fontSize=20;fontFamily=Architects Daughter;strokeWidth=2;rounded=0;hachureGap=4;fontSource=https%3A%2F%2Ffonts.googleapis.com%2Fcss%3Ffamily%3DArchitects%2BDaughter;direction=south;labelBackgroundColor=none;fillColor=#CC0000;strokeColor=#BAC8D3;fontColor=#EEEEEE;gradientColor=#0000CC;gradientDirection=south;" vertex="1" parent="WIyWlLk6GJQsqaUBKTNV-1">
          <mxGeometry x="435" y="450" width="156" height="140" as="geometry" />
        </mxCell>
        <mxCell id="fwAcgCH4Cena5gtede_H-43" style="edgeStyle=orthogonalEdgeStyle;rounded=0;orthogonalLoop=1;jettySize=auto;html=1;exitX=0.5;exitY=0;exitDx=0;exitDy=0;entryX=0.631;entryY=-0.075;entryDx=0;entryDy=0;entryPerimeter=0;labelBackgroundColor=none;strokeColor=#0B4D6A;fontColor=default;" edge="1" parent="WIyWlLk6GJQsqaUBKTNV-1" source="fwAcgCH4Cena5gtede_H-17" target="fwAcgCH4Cena5gtede_H-38">
          <mxGeometry relative="1" as="geometry" />
        </mxCell>
        <mxCell id="fwAcgCH4Cena5gtede_H-49" style="edgeStyle=orthogonalEdgeStyle;rounded=0;orthogonalLoop=1;jettySize=auto;html=1;exitX=0.5;exitY=1;exitDx=0;exitDy=0;entryX=0.25;entryY=0;entryDx=0;entryDy=0;labelBackgroundColor=none;strokeColor=#0B4D6A;fontColor=default;" edge="1" parent="WIyWlLk6GJQsqaUBKTNV-1" source="fwAcgCH4Cena5gtede_H-17" target="fwAcgCH4Cena5gtede_H-34">
          <mxGeometry relative="1" as="geometry" />
        </mxCell>
        <mxCell id="fwAcgCH4Cena5gtede_H-17" value="&lt;pre&gt;&lt;font size=&quot;1&quot; face=&quot;Times New Roman&quot;&gt;&lt;b style=&quot;font-size: 20px;&quot;&gt;ModelDOWN&lt;/b&gt;&lt;/font&gt;&lt;/pre&gt;" style="rhombus;whiteSpace=wrap;html=1;fontSize=20;fontFamily=Architects Daughter;strokeWidth=2;rounded=0;hachureGap=4;fontSource=https%3A%2F%2Ffonts.googleapis.com%2Fcss%3Ffamily%3DArchitects%2BDaughter;direction=south;labelBackgroundColor=none;fillColor=#FF3333;strokeColor=#BAC8D3;fontColor=#EEEEEE;gradientColor=#0000FF;gradientDirection=north;" vertex="1" parent="WIyWlLk6GJQsqaUBKTNV-1">
          <mxGeometry x="109" y="450" width="141" height="130" as="geometry" />
        </mxCell>
        <mxCell id="fwAcgCH4Cena5gtede_H-60" style="edgeStyle=orthogonalEdgeStyle;rounded=0;orthogonalLoop=1;jettySize=auto;html=1;exitX=0.5;exitY=1;exitDx=0;exitDy=0;entryX=0.5;entryY=1;entryDx=0;entryDy=0;labelBackgroundColor=none;strokeColor=#0B4D6A;fontColor=default;" edge="1" parent="WIyWlLk6GJQsqaUBKTNV-1">
          <mxGeometry relative="1" as="geometry">
            <mxPoint x="90" y="630" as="sourcePoint" />
            <mxPoint x="360" y="750" as="targetPoint" />
            <Array as="points">
              <mxPoint x="90" y="680" />
              <mxPoint x="360" y="680" />
            </Array>
          </mxGeometry>
        </mxCell>
        <mxCell id="fwAcgCH4Cena5gtede_H-34" value="&lt;font face=&quot;Times New Roman&quot;&gt;&lt;b style=&quot;font-size: 18px;&quot;&gt;FLOP&lt;/b&gt;&lt;/font&gt;" style="whiteSpace=wrap;html=1;fontSize=20;fontFamily=Architects Daughter;strokeWidth=2;rounded=1;hachureGap=4;fontSource=https%3A%2F%2Ffonts.googleapis.com%2Fcss%3Ffamily%3DArchitects%2BDaughter;labelBackgroundColor=none;fillColor=#FF0000;strokeColor=#BAC8D3;fontColor=#EEEEEE;gradientColor=#00FF00;gradientDirection=north;shadow=0;" vertex="1" parent="WIyWlLk6GJQsqaUBKTNV-1">
          <mxGeometry x="40" y="600" width="100" height="40" as="geometry" />
        </mxCell>
        <mxCell id="fwAcgCH4Cena5gtede_H-57" style="edgeStyle=orthogonalEdgeStyle;rounded=0;orthogonalLoop=1;jettySize=auto;html=1;exitX=0.5;exitY=1;exitDx=0;exitDy=0;entryX=0;entryY=0.5;entryDx=0;entryDy=0;labelBackgroundColor=none;strokeColor=#0B4D6A;fontColor=default;" edge="1" parent="WIyWlLk6GJQsqaUBKTNV-1" source="fwAcgCH4Cena5gtede_H-38" target="fwAcgCH4Cena5gtede_H-51">
          <mxGeometry relative="1" as="geometry" />
        </mxCell>
        <mxCell id="fwAcgCH4Cena5gtede_H-38" value="&lt;font size=&quot;1&quot; face=&quot;Times New Roman&quot;&gt;&lt;b style=&quot;font-size: 19px;&quot;&gt;BELOW AVG&lt;/b&gt;&lt;/font&gt;" style="whiteSpace=wrap;html=1;fontSize=20;fontFamily=Architects Daughter;strokeWidth=2;rounded=1;hachureGap=4;fontSource=https%3A%2F%2Ffonts.googleapis.com%2Fcss%3Ffamily%3DArchitects%2BDaughter;labelBackgroundColor=none;fillColor=#FF0000;strokeColor=#BAC8D3;fontColor=#EEEEEE;gradientColor=#00FF00;gradientDirection=north;shadow=0;" vertex="1" parent="WIyWlLk6GJQsqaUBKTNV-1">
          <mxGeometry x="200" y="600" width="130" height="40" as="geometry" />
        </mxCell>
        <mxCell id="fwAcgCH4Cena5gtede_H-52" style="edgeStyle=orthogonalEdgeStyle;rounded=0;orthogonalLoop=1;jettySize=auto;html=1;exitX=0.5;exitY=1;exitDx=0;exitDy=0;entryX=1;entryY=0.5;entryDx=0;entryDy=0;labelBackgroundColor=none;strokeColor=#0B4D6A;fontColor=default;" edge="1" parent="WIyWlLk6GJQsqaUBKTNV-1" source="fwAcgCH4Cena5gtede_H-41" target="fwAcgCH4Cena5gtede_H-51">
          <mxGeometry relative="1" as="geometry" />
        </mxCell>
        <mxCell id="fwAcgCH4Cena5gtede_H-41" value="&lt;font size=&quot;1&quot; face=&quot;Times New Roman&quot;&gt;&lt;b style=&quot;font-size: 19px;&quot;&gt;GOOD&lt;/b&gt;&lt;/font&gt;" style="whiteSpace=wrap;html=1;fontSize=20;fontFamily=Architects Daughter;strokeWidth=2;rounded=1;hachureGap=4;fontSource=https%3A%2F%2Ffonts.googleapis.com%2Fcss%3Ffamily%3DArchitects%2BDaughter;labelBackgroundColor=none;fillColor=#FF0000;strokeColor=#BAC8D3;fontColor=#EEEEEE;gradientColor=#00FF00;gradientDirection=north;shadow=0;" vertex="1" parent="WIyWlLk6GJQsqaUBKTNV-1">
          <mxGeometry x="380" y="600" width="130" height="40" as="geometry" />
        </mxCell>
        <mxCell id="fwAcgCH4Cena5gtede_H-58" style="edgeStyle=orthogonalEdgeStyle;rounded=0;orthogonalLoop=1;jettySize=auto;html=1;exitX=0.5;exitY=1;exitDx=0;exitDy=0;labelBackgroundColor=none;strokeColor=#0B4D6A;fontColor=default;" edge="1" parent="WIyWlLk6GJQsqaUBKTNV-1" source="fwAcgCH4Cena5gtede_H-42" target="fwAcgCH4Cena5gtede_H-51">
          <mxGeometry relative="1" as="geometry" />
        </mxCell>
        <mxCell id="fwAcgCH4Cena5gtede_H-42" value="&lt;font face=&quot;Times New Roman&quot;&gt;&lt;b style=&quot;font-size: 18px;&quot;&gt;HIT&lt;/b&gt;&lt;/font&gt;" style="whiteSpace=wrap;html=1;fontSize=20;fontFamily=Architects Daughter;strokeWidth=2;rounded=1;hachureGap=4;fontSource=https%3A%2F%2Ffonts.googleapis.com%2Fcss%3Ffamily%3DArchitects%2BDaughter;labelBackgroundColor=none;fillColor=#FF0000;strokeColor=#BAC8D3;fontColor=#EEEEEE;gradientColor=#00FF00;gradientDirection=north;shadow=0;glass=0;" vertex="1" parent="WIyWlLk6GJQsqaUBKTNV-1">
          <mxGeometry x="560" y="600" width="100" height="40" as="geometry" />
        </mxCell>
        <mxCell id="fwAcgCH4Cena5gtede_H-45" style="edgeStyle=orthogonalEdgeStyle;rounded=0;orthogonalLoop=1;jettySize=auto;html=1;exitX=0.5;exitY=0;exitDx=0;exitDy=0;entryX=0.631;entryY=-0.075;entryDx=0;entryDy=0;entryPerimeter=0;labelBackgroundColor=none;strokeColor=#0B4D6A;fontColor=default;" edge="1" parent="WIyWlLk6GJQsqaUBKTNV-1">
          <mxGeometry relative="1" as="geometry">
            <mxPoint x="590" y="518" as="sourcePoint" />
            <mxPoint x="622" y="600" as="targetPoint" />
          </mxGeometry>
        </mxCell>
        <mxCell id="fwAcgCH4Cena5gtede_H-62" value="" style="edgeStyle=orthogonalEdgeStyle;rounded=0;orthogonalLoop=1;jettySize=auto;html=1;labelBackgroundColor=none;strokeColor=#0B4D6A;fontColor=default;" edge="1" parent="WIyWlLk6GJQsqaUBKTNV-1" source="fwAcgCH4Cena5gtede_H-51">
          <mxGeometry relative="1" as="geometry">
            <mxPoint x="360" y="800" as="targetPoint" />
          </mxGeometry>
        </mxCell>
        <mxCell id="fwAcgCH4Cena5gtede_H-51" value="" style="ellipse;whiteSpace=wrap;html=1;aspect=fixed;labelBackgroundColor=none;fillColor=#0000FF;strokeColor=#BAC8D3;fontColor=#EEEEEE;rounded=0;gradientColor=#be38f3;gradientDirection=north;" vertex="1" parent="WIyWlLk6GJQsqaUBKTNV-1">
          <mxGeometry x="340" y="720" width="40" height="40" as="geometry" />
        </mxCell>
        <mxCell id="fwAcgCH4Cena5gtede_H-63" value="&lt;font size=&quot;1&quot; face=&quot;Times New Roman&quot;&gt;&lt;b style=&quot;font-size: 19px;&quot;&gt;FINAL PREDICTION&lt;/b&gt;&lt;/font&gt;" style="whiteSpace=wrap;html=1;fontSize=20;fontFamily=Architects Daughter;strokeWidth=2;rounded=1;hachureGap=4;fontSource=https%3A%2F%2Ffonts.googleapis.com%2Fcss%3Ffamily%3DArchitects%2BDaughter;labelBackgroundColor=none;fillColor=#FF0080;strokeColor=#BAC8D3;fontColor=#EEEEEE;gradientColor=#0000CC;gradientDirection=north;" vertex="1" parent="WIyWlLk6GJQsqaUBKTNV-1">
          <mxGeometry x="295" y="800" width="135" height="50" as="geometry" />
        </mxCell>
      </root>
    </mxGraphModel>
  </diagram>
</mxfile>
